# xmcd
#
# Track frame offsets:
#	150
#	15995
#	31842
#
# Disc length: 642 seconds
#
# Revision: 2
# Processed by: cddbd v1.5.2PL0 Copyright (c) Steve Scherf et al.
# Submitted via: audiograbber 1.83.01
#
DISCID=12028003
DTITLE=Sawt El Atlas - Ne me jugez pas
DYEAR=2000
DGENRE=Rap
TTITLE0=Ne me jugez pas
TTITLE1=Ke me jugez pas (Remix)
TTITLE2=Ne me jugez pas (Version Arabe)
EXTD=Rap 2000
EXTT0=
EXTT1=
EXTT2=
PLAYORDER=
